<svg width="636" height="688" viewBox="0 0 636 688" fill="none" xmlns="http://www.w3.org/2000/svg">
<path d="M138.508 66L143.008 56L209.508 3.5L219.008 0.5H229.508L304.008 41L308.508 44.5L312.508 50.5L316.008 56L319.508 66L327.508 146.5L325.508 153.5L322.008 161L315.008 169L307.008 176L305.508 179L302.508 182L297.008 183.5L277.008 202L265.508 212L255.008 218L247.008 220L240.508 221L235.008 220L228.008 221L218.008 218L209.008 212L202.008 211L198.508 208.5H192.008L183.508 202H176.508L170.008 198L163.508 196.5L123.508 166.5L122.508 153.5L124.508 149V139.5L126.008 135.5L127.008 128.5L129.508 122.5L138.508 66Z" fill="#C64B4B"/>
<path d="M235.008 220V120.5M235.008 220L240.508 221L247.008 220L255.008 218L265.508 212L277.008 202L297.008 183.5L302.508 182L305.508 179L307.008 176L315.008 169L322.008 161L325.508 153.5L327.508 146.5L319.508 66L316.008 56L312.508 50.5M235.008 220L228.008 221L218.008 218L209.008 212L202.008 211L198.508 208.5H192.008L183.508 202H176.508L170.008 198L163.508 196.5L123.508 166.5L122.508 153.5L124.508 149V139.5L126.008 135.5L127.008 128.5L129.508 122.5L138.508 66M235.008 120.5H223.508L214.508 118L139.508 71L138.508 66M235.008 120.5L245.508 118L308.508 66L312.508 58V50.5M138.508 66L143.008 56L209.508 3.5L219.008 0.5H229.508L304.008 41L308.508 44.5L312.508 50.5" stroke="#404040"/>
<path d="M16.5078 164L21.0078 154L87.5078 101.5L97.0078 98.5H107.508L182.008 139L186.508 142.5L190.508 148.5L194.008 154L197.508 164L205.508 244.5L203.508 251.5L200.008 259L193.008 267L185.008 274L183.508 277L180.508 280L175.008 281.5L155.008 300L143.508 310L133.008 316L125.008 318L118.508 319L113.008 318L106.008 319L96.0078 316L87.0078 310L80.0078 309L76.5078 306.5H70.0078L61.5078 300H54.5078L48.0078 296L41.5078 294.5L1.50781 264.5L0.507812 251.5L2.50781 247V237.5L4.00781 233.5L5.00781 226.5L7.50781 220.5L16.5078 164Z" fill="#C64B4B"/>
<path d="M113.008 318V218.5M113.008 318L118.508 319L125.008 318L133.008 316L143.508 310L155.008 300L175.008 281.5L180.508 280L183.508 277L185.008 274L193.008 267L200.008 259L203.508 251.5L205.508 244.5L197.508 164L194.008 154L190.508 148.5M113.008 318L106.008 319L96.0078 316L87.0078 310L80.0078 309L76.5078 306.5H70.0078L61.5078 300H54.5078L48.0078 296L41.5078 294.5L1.50781 264.5L0.507812 251.5L2.50781 247V237.5L4.00781 233.5L5.00781 226.5L7.50781 220.5L16.5078 164M113.008 218.5H101.508L92.5078 216L17.5078 169L16.5078 164M113.008 218.5L123.508 216L186.508 164L190.508 156V148.5M16.5078 164L21.0078 154L87.5078 101.5L97.0078 98.5H107.508L182.008 139L186.508 142.5L190.508 148.5" stroke="#404040"/>
<path d="M152.508 251L157.008 241L223.508 188.5L233.008 185.5H243.508L318.008 226L322.508 229.5L326.508 235.5L330.008 241L333.508 251L341.508 331.5L339.508 338.5L336.008 346L329.008 354L321.008 361L319.508 364L316.508 367L311.008 368.5L291.008 387L279.508 397L269.008 403L261.008 405L254.508 406L249.008 405L242.008 406L232.008 403L223.008 397L216.008 396L212.508 393.5H206.008L197.508 387H190.508L184.008 383L177.508 381.5L137.508 351.5L136.508 338.5L138.508 334V324.5L140.008 320.5L141.008 313.5L143.508 307.5L152.508 251Z" fill="#C64B4B"/>
<path d="M249.008 405V305.5M249.008 405L254.508 406L261.008 405L269.008 403L279.508 397L291.008 387L311.008 368.5L316.508 367L319.508 364L321.008 361L329.008 354L336.008 346L339.508 338.5L341.508 331.5L333.508 251L330.008 241L326.508 235.5M249.008 405L242.008 406L232.008 403L223.008 397L216.008 396L212.508 393.5H206.008L197.508 387H190.508L184.008 383L177.508 381.5L137.508 351.5L136.508 338.5L138.508 334V324.5L140.008 320.5L141.008 313.5L143.508 307.5L152.508 251M249.008 305.5H237.508L228.508 303L153.508 256L152.508 251M249.008 305.5L259.508 303L322.508 251L326.508 243V235.5M152.508 251L157.008 241L223.508 188.5L233.008 185.5H243.508L318.008 226L322.508 229.5L326.508 235.5" stroke="#404040"/>
<path d="M295.508 333L300.008 323L366.508 270.5L376.008 267.5H386.508L461.008 308L465.508 311.5L469.508 317.5L473.008 323L476.508 333L484.508 413.5L482.508 420.5L479.008 428L472.008 436L464.008 443L462.508 446L459.508 449L454.008 450.5L434.008 469L422.508 479L412.008 485L404.008 487L397.508 488L392.008 487L385.008 488L375.008 485L366.008 479L359.008 478L355.508 475.5H349.008L340.508 469H333.508L327.008 465L320.508 463.5L280.508 433.5L279.508 420.5L281.508 416V406.5L283.008 402.5L284.008 395.5L286.508 389.5L295.508 333Z" fill="#C64B4B"/>
<path d="M392.008 487V387.5M392.008 487L397.508 488L404.008 487L412.008 485L422.508 479L434.008 469L454.008 450.5L459.508 449L462.508 446L464.008 443L472.008 436L479.008 428L482.508 420.5L484.508 413.5L476.508 333L473.008 323L469.508 317.5M392.008 487L385.008 488L375.008 485L366.008 479L359.008 478L355.508 475.5H349.008L340.508 469H333.508L327.008 465L320.508 463.5L280.508 433.5L279.508 420.5L281.508 416V406.5L283.008 402.5L284.008 395.5L286.508 389.5L295.508 333M392.008 387.5H380.508L371.508 385L296.508 338L295.508 333M392.008 387.5L402.508 385L465.508 333L469.508 325V317.5M295.508 333L300.008 323L366.508 270.5L376.008 267.5H386.508L461.008 308L465.508 311.5L469.508 317.5" stroke="#404040"/>
<path d="M445.508 409L450.008 399L516.508 346.5L526.008 343.5H536.508L611.008 384L615.508 387.5L619.508 393.5L623.008 399L626.508 409L634.508 489.5L632.508 496.5L629.008 504L622.008 512L614.008 519L612.508 522L609.508 525L604.008 526.5L584.008 545L572.508 555L562.008 561L554.008 563L547.508 564L542.008 563L535.008 564L525.008 561L516.008 555L509.008 554L505.508 551.5H499.008L490.508 545H483.508L477.008 541L470.508 539.5L430.508 509.5L429.508 496.5L431.508 492V482.5L433.008 478.5L434.008 471.5L436.508 465.5L445.508 409Z" fill="#C64B4B"/>
<path d="M542.008 563V463.5M542.008 563L547.508 564L554.008 563L562.008 561L572.508 555L584.008 545L604.008 526.5L609.508 525L612.508 522L614.008 519L622.008 512L629.008 504L632.508 496.5L634.508 489.5L626.508 409L623.008 399L619.508 393.5M542.008 563L535.008 564L525.008 561L516.008 555L509.008 554L505.508 551.5H499.008L490.508 545H483.508L477.008 541L470.508 539.5L430.508 509.5L429.508 496.5L431.508 492V482.5L433.008 478.5L434.008 471.5L436.508 465.5L445.508 409M542.008 463.5H530.508L521.508 461L446.508 414L445.508 409M542.008 463.5L552.508 461L615.508 409L619.508 401V393.5M445.508 409L450.008 399L516.508 346.5L526.008 343.5H536.508L611.008 384L615.508 387.5L619.508 393.5" stroke="#404040"/>
<path d="M63.5078 377L68.0078 367L134.508 314.5L144.008 311.5H154.508L229.008 352L233.508 355.5L237.508 361.5L241.008 367L244.508 377L252.508 457.5L250.508 464.5L247.008 472L240.008 480L232.008 487L230.508 490L227.508 493L222.008 494.5L202.008 513L190.508 523L180.008 529L172.008 531L165.508 532L160.008 531L153.008 532L143.008 529L134.008 523L127.008 522L123.508 519.5H117.008L108.508 513H101.508L95.0078 509L88.5078 507.5L48.5078 477.5L47.5078 464.5L49.5078 460V450.5L51.0078 446.5L52.0078 439.5L54.5078 433.5L63.5078 377Z" fill="#C64B4B"/>
<path d="M160.008 531V431.5M160.008 531L165.508 532L172.008 531L180.008 529L190.508 523L202.008 513L222.008 494.5L227.508 493L230.508 490L232.008 487L240.008 480L247.008 472L250.508 464.5L252.508 457.5L244.508 377L241.008 367L237.508 361.5M160.008 531L153.008 532L143.008 529L134.008 523L127.008 522L123.508 519.5H117.008L108.508 513H101.508L95.0078 509L88.5078 507.5L48.5078 477.5L47.5078 464.5L49.5078 460V450.5L51.0078 446.5L52.0078 439.5L54.5078 433.5L63.5078 377M160.008 431.5H148.508L139.508 429L64.5078 382L63.5078 377M160.008 431.5L170.508 429L233.508 377L237.508 369V361.5M63.5078 377L68.0078 367L134.508 314.5L144.008 311.5H154.508L229.008 352L233.508 355.5L237.508 361.5" stroke="#404040"/>
<path d="M206.508 456L211.008 446L277.508 393.5L287.008 390.5H297.508L372.008 431L376.508 434.5L380.508 440.5L384.008 446L387.508 456L395.508 536.5L393.508 543.5L390.008 551L383.008 559L375.008 566L373.508 569L370.508 572L365.008 573.5L345.008 592L333.508 602L323.008 608L315.008 610L308.508 611L303.008 610L296.008 611L286.008 608L277.008 602L270.008 601L266.508 598.5H260.008L251.508 592H244.508L238.008 588L231.508 586.5L191.508 556.5L190.508 543.5L192.508 539V529.5L194.008 525.5L195.008 518.5L197.508 512.5L206.508 456Z" fill="#C64B4B"/>
<path d="M303.008 610V510.5M303.008 610L308.508 611L315.008 610L323.008 608L333.508 602L345.008 592L365.008 573.5L370.508 572L373.508 569L375.008 566L383.008 559L390.008 551L393.508 543.5L395.508 536.5L387.508 456L384.008 446L380.508 440.5M303.008 610L296.008 611L286.008 608L277.008 602L270.008 601L266.508 598.5H260.008L251.508 592H244.508L238.008 588L231.508 586.5L191.508 556.5L190.508 543.5L192.508 539V529.5L194.008 525.5L195.008 518.5L197.508 512.5L206.508 456M303.008 510.5H291.508L282.508 508L207.508 461L206.508 456M303.008 510.5L313.508 508L376.508 456L380.508 448V440.5M206.508 456L211.008 446L277.508 393.5L287.008 390.5H297.508L372.008 431L376.508 434.5L380.508 440.5" stroke="#404040"/>
<path d="M353.508 532L358.008 522L424.508 469.5L434.008 466.5H444.508L519.008 507L523.508 510.5L527.508 516.5L531.008 522L534.508 532L542.508 612.5L540.508 619.5L537.008 627L530.008 635L522.008 642L520.508 645L517.508 648L512.008 649.5L492.008 668L480.508 678L470.008 684L462.008 686L455.508 687L450.008 686L443.008 687L433.008 684L424.008 678L417.008 677L413.508 674.5H407.008L398.508 668H391.508L385.008 664L378.508 662.5L338.508 632.5L337.508 619.5L339.508 615V605.5L341.008 601.5L342.008 594.5L344.508 588.5L353.508 532Z" fill="#C64B4B"/>
<path d="M450.008 686V586.5M450.008 686L455.508 687L462.008 686L470.008 684L480.508 678L492.008 668L512.008 649.5L517.508 648L520.508 645L522.008 642L530.008 635L537.008 627L540.508 619.5L542.508 612.5L534.508 532L531.008 522L527.508 516.5M450.008 686L443.008 687L433.008 684L424.008 678L417.008 677L413.508 674.5H407.008L398.508 668H391.508L385.008 664L378.508 662.5L338.508 632.5L337.508 619.5L339.508 615V605.5L341.008 601.5L342.008 594.5L344.508 588.5L353.508 532M450.008 586.5H438.508L429.508 584L354.508 537L353.508 532M450.008 586.5L460.508 584L523.508 532L527.508 524V516.5M353.508 532L358.008 522L424.508 469.5L434.008 466.5H444.508L519.008 507L523.508 510.5L527.508 516.5" stroke="#404040"/>
<path d="M60.3616 167.046L103.184 115.507L121.201 130.477C125.533 134.076 128.75 137.914 130.854 141.992C133.048 146.061 134.246 150.177 134.449 154.34C134.652 158.502 134.006 162.584 132.512 166.585C131.109 170.578 128.955 174.321 126.051 177.817C123.106 181.361 119.759 184.238 116.009 186.448C112.349 188.649 108.435 190.056 104.265 190.668C100.135 191.232 95.8492 190.832 91.4058 189.47C87.0526 188.1 82.7101 185.615 78.3782 182.016L60.3616 167.046ZM88.5591 167.509L89.7405 168.491C91.2173 169.718 92.9883 170.441 95.0536 170.659C97.1189 170.877 99.3267 170.423 101.677 169.297C104.076 168.212 106.442 166.266 108.773 163.461C111.104 160.655 112.563 157.998 113.149 155.489C113.785 153.022 113.786 150.818 113.152 148.876C112.518 146.935 111.463 145.351 109.986 144.124L108.805 143.143L88.5591 167.509Z" fill="#FAFAFA"/>
<path d="M212.547 262.457L255.991 211.44L272.729 225.693L229.285 276.71L212.547 262.457ZM245.905 202.851L282.815 234.283L271.363 247.731L234.453 216.299L245.905 202.851ZM213.913 240.419L250.823 271.851L239.371 285.299L202.461 253.867L213.913 240.419Z" fill="#FAFAFA"/>
<path d="M345.195 329.938L388.639 278.922L407.57 295.042L390.234 334.499L403.015 316.382L415.463 301.764L430.227 314.337L386.783 365.353L367.853 349.233L383.984 310.893L372.47 327.82L359.959 342.511L345.195 329.938Z" fill="#FAFAFA"/>
<path d="M515.352 426.616C510.772 422.716 507.734 418.237 506.239 413.182C504.793 408.167 504.825 402.898 506.334 397.375C507.843 391.851 510.86 386.434 515.382 381.123C519.947 375.763 524.835 371.898 530.048 369.528C535.26 367.158 540.436 366.311 545.575 366.989C550.805 367.659 555.685 369.924 560.217 373.783C564.797 377.684 567.81 382.141 569.256 387.155C570.793 392.162 570.782 397.407 569.224 402.889C567.714 408.412 564.677 413.854 560.113 419.214C555.59 424.525 550.723 428.366 545.51 430.736C540.346 433.147 535.149 434.018 529.92 433.348C524.74 432.719 519.883 430.475 515.352 426.616ZM526.731 413.105C528.047 414.226 529.575 414.602 531.316 414.236C533.058 413.869 534.929 412.857 536.929 411.198C538.979 409.581 541.103 407.481 543.303 404.899C545.543 402.267 547.278 399.836 548.506 397.603C549.825 395.364 550.527 393.355 550.611 391.578C550.696 389.801 550.08 388.352 548.764 387.232C547.449 386.111 545.92 385.734 544.179 386.101C542.438 386.467 540.543 387.459 538.493 389.076C536.534 390.686 534.454 392.782 532.255 395.365C530.015 397.996 528.235 400.432 526.916 402.671C525.646 404.952 524.969 406.981 524.884 408.759C524.8 410.536 525.416 411.985 526.731 413.105Z" fill="#FAFAFA"/>
</svg>
