<svg width="33" height="34" viewBox="0 0 33 34" fill="none" xmlns="http://www.w3.org/2000/svg">
<path d="M17.5013 18.2082L15.597 16.3039L21.7681 10.1327L23.7568 12.1215C24.3554 12.7201 24.7442 13.3559 24.9229 14.0289C25.1037 14.6998 25.0776 15.3788 24.8446 16.0658C24.6136 16.7508 24.1787 17.4127 23.5399 18.0515C22.897 18.6944 22.2291 19.1333 21.5361 19.3683C20.845 19.6013 20.156 19.6234 19.469 19.4346C18.784 19.2438 18.1281 18.835 17.5013 18.2082ZM17.0072 16.3882L18.116 17.4971C18.6263 18.0073 19.1476 18.3318 19.6799 18.4704C20.2122 18.609 20.7426 18.5788 21.2709 18.38C21.7992 18.1811 22.3145 17.8306 22.8167 17.3284C23.3149 16.8302 23.6624 16.3199 23.8593 15.7976C24.0581 15.2733 24.0923 14.753 23.9617 14.2368C23.8332 13.7185 23.5278 13.2183 23.0457 12.7362L21.8524 11.5429L17.0072 16.3882Z" fill="#171717"/>
<path d="M15.026 14.3191L16.9304 16.2235L10.7593 22.3946L8.77053 20.4059C8.1719 19.8072 7.78319 19.1714 7.60441 18.4985C7.42361 17.8275 7.44973 17.1486 7.68275 16.4615C7.91377 15.7765 8.34868 15.1146 8.98748 14.4758C9.63031 13.833 10.2982 13.3941 10.9913 13.159C11.6823 12.926 12.3714 12.9039 13.0584 13.0927C13.7434 13.2836 14.3993 13.6924 15.026 14.3191ZM15.5202 16.1391L14.4113 15.0302C13.9011 14.52 13.3798 14.1956 12.8474 14.057C12.3151 13.9184 11.7848 13.9485 11.2565 14.1474C10.7281 14.3462 10.2129 14.6968 9.71066 15.199C9.21247 15.6972 8.86494 16.2074 8.66808 16.7297C8.46921 17.254 8.43506 17.7743 8.56563 18.2906C8.69419 18.8088 8.99954 19.309 9.48165 19.7912L10.6749 20.9844L15.5202 16.1391Z" fill="#171717"/>
<path d="M18.2082 15.0262L16.3039 16.9306L10.1327 10.7595L12.1215 8.77074C12.7201 8.17211 13.3559 7.7834 14.0289 7.60462C14.6998 7.42382 15.3788 7.44994 16.0658 7.68296C16.7508 7.91398 17.4127 8.34889 18.0515 8.98769C18.6944 9.63052 19.1333 10.2985 19.3683 10.9915C19.6013 11.6825 19.6234 12.3716 19.4346 13.0586C19.2438 13.7436 18.835 14.3995 18.2082 15.0262ZM16.3882 15.5204L17.4971 14.4115C18.0073 13.9013 18.3318 13.38 18.4704 12.8477C18.609 12.3153 18.5788 11.785 18.38 11.2567C18.1811 10.7283 17.8306 10.2131 17.3284 9.71087C16.8302 9.21268 16.3199 8.86516 15.7976 8.66829C15.2733 8.46942 14.753 8.43527 14.2368 8.56584C13.7185 8.69441 13.2183 8.99975 12.7362 9.48187L11.5429 10.6751L16.3882 15.5204Z" fill="#171717"/>
<path d="M14.3191 17.5011L16.2235 15.5967L22.3946 21.7679L20.4059 23.7566C19.8072 24.3552 19.1714 24.7439 18.4985 24.9227C17.8275 25.1035 17.1486 25.0774 16.4615 24.8444C15.7765 24.6134 15.1146 24.1785 14.4758 23.5396C13.833 22.8968 13.3941 22.2289 13.159 21.5358C12.926 20.8448 12.9039 20.1558 13.0927 19.4688C13.2836 18.7838 13.6924 18.1279 14.3191 17.5011ZM16.1391 17.0069L15.0302 18.1158C14.52 18.6261 14.1956 19.1473 14.057 19.6797C13.9184 20.212 13.9485 20.7424 14.1474 21.2707C14.3462 21.799 14.6968 22.3143 15.199 22.8165C15.6972 23.3147 16.2074 23.6622 16.7297 23.8591C17.254 24.0579 17.7743 24.0921 18.2906 23.9615C18.8088 23.8329 19.309 23.5276 19.7912 23.0455L20.9844 21.8522L16.1391 17.0069Z" fill="#171717"/>
<path d="M17.5013 19.2082L15.597 17.3039L21.7681 11.1327L23.7568 13.1215C24.3554 13.7201 24.7442 14.3559 24.9229 15.0289C25.1037 15.6998 25.0776 16.3788 24.8446 17.0658C24.6136 17.7508 24.1787 18.4127 23.5399 19.0515C22.897 19.6944 22.2291 20.1333 21.5361 20.3683C20.845 20.6013 20.156 20.6234 19.469 20.4346C18.784 20.2438 18.1281 19.835 17.5013 19.2082ZM17.0072 17.3882L18.116 18.4971C18.6263 19.0073 19.1476 19.3318 19.6799 19.4704C20.2122 19.609 20.7426 19.5788 21.2709 19.38C21.7992 19.1811 22.3145 18.8306 22.8167 18.3284C23.3149 17.8302 23.6624 17.3199 23.8593 16.7976C24.0581 16.2733 24.0923 15.753 23.9617 15.2368C23.8332 14.7185 23.5278 14.2183 23.0457 13.7362L21.8524 12.5429L17.0072 17.3882Z" fill="#171717"/>
<path d="M15.026 15.3191L16.9304 17.2235L10.7593 23.3946L8.77053 21.4059C8.1719 20.8072 7.78319 20.1714 7.60441 19.4985C7.42361 18.8275 7.44973 18.1486 7.68275 17.4615C7.91377 16.7765 8.34868 16.1146 8.98748 15.4758C9.63031 14.833 10.2982 14.3941 10.9913 14.159C11.6823 13.926 12.3714 13.9039 13.0584 14.0927C13.7434 14.2836 14.3993 14.6924 15.026 15.3191ZM15.5202 17.1391L14.4113 16.0302C13.9011 15.52 13.3798 15.1956 12.8474 15.057C12.3151 14.9184 11.7848 14.9485 11.2565 15.1474C10.7281 15.3462 10.2129 15.6968 9.71066 16.199C9.21247 16.6972 8.86494 17.2074 8.66808 17.7297C8.46921 18.254 8.43506 18.7743 8.56563 19.2906C8.69419 19.8088 8.99954 20.309 9.48165 20.7912L10.6749 21.9844L15.5202 17.1391Z" fill="#171717"/>
<path d="M18.2082 16.0262L16.3039 17.9306L10.1327 11.7595L12.1215 9.77074C12.7201 9.17211 13.3559 8.7834 14.0289 8.60462C14.6998 8.42382 15.3788 8.44994 16.0658 8.68296C16.7508 8.91398 17.4127 9.34889 18.0515 9.98769C18.6944 10.6305 19.1333 11.2985 19.3683 11.9915C19.6013 12.6825 19.6234 13.3716 19.4346 14.0586C19.2438 14.7436 18.835 15.3995 18.2082 16.0262ZM16.3882 16.5204L17.4971 15.4115C18.0073 14.9013 18.3318 14.38 18.4704 13.8477C18.609 13.3153 18.5788 12.785 18.38 12.2567C18.1811 11.7283 17.8306 11.2131 17.3284 10.7109C16.8302 10.2127 16.3199 9.86516 15.7976 9.66829C15.2733 9.46942 14.753 9.43527 14.2368 9.56584C13.7185 9.69441 13.2183 9.99975 12.7362 10.4819L11.5429 11.6751L16.3882 16.5204Z" fill="#171717"/>
<path d="M14.3191 18.5011L16.2235 16.5967L22.3946 22.7679L20.4059 24.7566C19.8072 25.3552 19.1714 25.7439 18.4985 25.9227C17.8275 26.1035 17.1486 26.0774 16.4615 25.8444C15.7765 25.6134 15.1146 25.1785 14.4758 24.5396C13.833 23.8968 13.3941 23.2289 13.159 22.5358C12.926 21.8448 12.9039 21.1558 13.0927 20.4688C13.2836 19.7838 13.6924 19.1279 14.3191 18.5011ZM16.1391 18.0069L15.0302 19.1158C14.52 19.6261 14.1956 20.1473 14.057 20.6797C13.9184 21.212 13.9485 21.7424 14.1474 22.2707C14.3462 22.799 14.6968 23.3143 15.199 23.8165C15.6972 24.3147 16.2074 24.6622 16.7297 24.8591C17.254 25.0579 17.7743 25.0921 18.2906 24.9615C18.8088 24.8329 19.309 24.5276 19.7912 24.0455L20.9844 22.8522L16.1391 18.0069Z" fill="#171717"/>
</svg>
